<?xml version="1.0" encoding="utf-8"?>
<!-- Generator: Adobe Illustrator 20.1.0, SVG Export Plug-In . SVG Version: 6.00 Build 0)  -->
<svg version="1.1" id="Layer_1" xmlns="http://www.w3.org/2000/svg" xmlns:xlink="http://www.w3.org/1999/xlink" x="0px" y="0px"
	 viewBox="0 0 168 30" style="enable-background:new 0 0 168 30;" xml:space="preserve">
<style type="text/css">
	.st0{fill:none;}
	.st1{fill:#00558C;}
</style>
<rect id="sofico-rgb-small" x="67.9" y="12" class="st0" width="32" height="6.1"/>
<g>
	<path class="st1" d="M22.9,6.3c-2.2-0.3-4.5-0.6-6.8-0.6c-4,0-6.7,0.6-6.7,2.5c0,1.6,1.6,2.2,7.6,4.2c3.3,1.1,9.1,3.2,9.1,8.6
		c0,5-5.3,9-13.2,9c-4.8,0-7.5-0.7-11.5-1.6v-6.3c4.4,1.2,8.1,1.8,10.8,1.8c2.5,0,4.3-1,4.3-2.8c0-1.6-3.3-2.5-7.4-3.7
		c-5.5-1.6-8.6-5-8.6-9c0-6,7.7-8.4,13.8-8.4c2.9,0,5.8,0.4,8.6,0.8C22.9,0.9,22.9,6.3,22.9,6.3z"/>
	<path class="st1" d="M44.7,23.3C50,23.3,52,19,52,15c0-4-2-8.3-7.3-8.3c-5.2,0-7.3,3.4-7.3,8.3C37.5,19.2,39.9,23.3,44.7,23.3z
		 M27.3,15c0-9.3,7-14.9,17.4-14.9c8.9,0,17.4,4.4,17.4,14.9c0,8.2-6.7,14.9-17.4,14.9C34.5,29.9,27.3,23.4,27.3,15z"/>
	<path class="st1" d="M65.4,29.2c0.2-2.8,0.3-5.2,0.3-7.9V8.7c0-2.1,0-4.8-0.5-7.9h21.8l0.6,5.8c-2.1,0-4.4-0.2-6.5-0.2h-5.2v5.9
		h3.7c2.5,0,5-0.2,7.4-0.2v6c-2.4-0.1-5-0.2-7.4-0.2h-3.7v3.5c0,2.7,0.2,5.2,0.3,7.9C76,29.2,65.4,29.2,65.4,29.2z"/>
	<path class="st1" d="M91.5,29.2c0.2-2.8,0.3-5.2,0.3-7.9V8.7c0-2.1,0-4.8-0.5-7.9h11.1c-0.5,2.5-0.5,5.3-0.5,7.9v10.6
		c0,3.3,0.7,6.6,1,9.9H91.5z"/>
	<path class="st1" d="M131.5,29.6c-2,0.1-3.9,0.4-5.9,0.4c-12.7,0-19.3-8-19.3-15.7c0-10.2,8.3-14.1,18.6-14.1
		c2.1,0,4.1,0.2,6.2,0.4v6.8c-1.9-0.2-3.7-0.6-5.7-0.6c-6.3,0-9,3.4-9,7.5c0,5,3.8,9.1,10.5,9.1c1.5,0,3-0.1,4.5-0.4
		C131.5,23,131.5,29.6,131.5,29.6z"/>
	<path class="st1" d="M150.1,23.3c5.2,0,7.3-4.3,7.3-8.3c0-4-2-8.3-7.3-8.3c-5.2,0-7.3,3.4-7.3,8.3
		C142.8,19.2,145.2,23.3,150.1,23.3z M132.7,15c0-9.3,7-14.9,17.4-14.9c8.9,0,17.4,4.4,17.4,14.9c0,8.2-6.7,14.9-17.4,14.9
		C139.8,29.9,132.7,23.4,132.7,15z"/>
</g>
</svg>
